PathFileType	4	(X/Y/Z)	c:/Users/goper/Files/vsCode/490R/osim_files/C15/C15_Fast_04.trc
DataRate	CameraRate	NumFrames	NumMarkers	Units                	OrigDataRate	OrigDataStartFrame	OrigNumFrames
250.00	250.00	6	36	mm	250.0	1729	2766
                Frame#	Time	LPSIS			LASIS			LTH1			LTH2			LTH3			LTH4			LLFE			LMFE			LSH1			LSH2			LSH3			LSH4			LLMAL			LMMAL			LCAL			LMTP5			LTOE			LMTP1			RPSIS			RASIS			RTH1			RTH2			RTH3			RTH4			RLFE			RMFE			RSH1			RSH2			RSH3			RSH4			RLMAL			RMMAL			RCAL			RMTP1			RTOE			RMTP5		
		X1	Y1	Z1	X2	Y2	Z2	X3	Y3	Z3	X4	Y4	Z4	X5	Y5	Z5	X6	Y6	Z6	X7	Y7	Z7	X8	Y8	Z8	X9	Y9	Z9	X10	Y10	Z10	X11	Y11	Z11	X12	Y12	Z12	X13	Y13	Z13	X14	Y14	Z14	X15	Y15	Z15	X16	Y16	Z16	X17	Y17	Z17	X18	Y18	Z18	X19	Y19	Z19	X20	Y20	Z20	X21	Y21	Z21	X22	Y22	Z22	X23	Y23	Z23	X24	Y24	Z24	X25	Y25	Z25	X26	Y26	Z26	X27	Y27	Z27	X28	Y28	Z28	X29	Y29	Z29	X30	Y30	Z30	X31	Y31	Z31	X32	Y32	Z32	X33	Y33	Z33	X34	Y34	Z34	X35	Y35	Z35	X36	Y36	Z36

1729	6.91200	-1928.43945	996.15588	264.25516	-2087.92456	968.36523	345.28882	-1908.85364	601.20691	393.49637	-1897.88513	557.12726	379.18774	-1960.41492	596.15765	390.12778	-1950.02380	552.25372	380.51895	-1888.05127	481.85809	360.29486	-1896.02954	464.16122	243.80548	-1783.30151	409.46024	371.08990	-1760.92896	369.25903	372.47977	-1834.44092	377.29456	372.07407	-1807.21228	341.51227	375.13428	-1662.86023	124.33091	305.12234	-1692.38196	143.99336	218.12173	-1595.06372	114.87380	261.04623	-1759.09949	39.07455	321.42780	-1818.15015	57.75981	259.06119	-1774.67444	36.74860	202.64273	-1940.25720	992.65985	143.48651	-2099.71899	970.31799	95.10725	-2153.43945	612.00964	36.02420	-2174.69604	570.52344	48.91037	-2208.20874	635.42975	51.16498	-2221.42603	590.01013	56.63160	-2220.04736	494.62613	82.88007	-2211.74854	476.64093	200.17245	-2178.92017	369.32645	67.27094	-2193.51270	328.69379	63.17068	-2238.86597	384.54324	66.11543	-2245.34497	342.78806	61.48539	-2315.64258	91.11075	123.34046	-2335.72437	125.82964	209.18533	-2270.04663	47.83858	171.91911	-2463.19287	105.25082	205.56886	-2486.03931	138.58546	153.11096	-2446.57373	78.48361	95.07594
1730	6.91600	-1934.47327	995.77704	263.92645	-2093.49292	967.73938	344.69144	-1914.23071	600.71106	393.29736	-1903.55969	556.79071	379.33627	-1965.82239	595.56494	389.97412	-1955.72095	551.66345	380.60889	-1893.21509	481.47916	360.31909	-1901.38403	463.52063	243.92726	-1787.75427	410.10379	371.19022	-1764.91870	370.10590	372.53613	-1838.50769	377.41479	372.19891	-1810.97253	341.99637	375.26364	-1664.36597	126.03551	305.54822	-1694.65833	145.28500	218.94211	-1596.33728	117.70212	262.00537	-1759.13818	38.75659	321.17575	-1818.40796	57.76042	259.13657	-1774.90295	36.91654	202.81975	-1946.43921	992.36737	143.09697	-2105.89136	970.04089	94.85957	-2159.70215	611.63330	36.57415	-2180.89917	570.27209	49.71646	-2214.54858	635.02356	51.29340	-2227.73657	589.58698	57.28649	-2226.05444	494.34448	83.70135	-2218.00952	476.88931	200.41074	-2183.71094	369.41226	67.84256	-2198.19116	328.47287	63.80689	-2244.07935	383.97769	67.07664	-2250.23755	342.29123	62.28470	-2317.94922	91.06898	123.63477	-2338.24731	124.55030	210.02226	-2271.60059	48.60271	172.29590	-2465.31592	101.63249	206.79347	-2489.00781	135.17818	154.62564	-2448.57520	75.81866	96.29641
1731	6.92000	-1940.60889	995.33521	263.58316	-2099.53833	967.14691	344.38361	-1919.75549	600.24768	393.09222	-1908.94836	556.32739	379.11368	-1971.29529	595.06500	389.87515	-1960.89832	551.05463	380.61774	-1898.43457	481.04868	360.40845	-1906.95923	462.89124	244.03918	-1792.23718	410.81354	371.25009	-1768.93030	371.05301	372.60617	-1842.72644	377.56210	372.42050	-1814.68848	342.38544	375.49051	-1665.99170	127.80135	306.00854	-1696.38867	146.73145	219.14632	-1598.15491	120.24680	261.68484	-1759.39307	38.75986	321.21259	-1818.69128	57.73423	259.21545	-1775.10803	37.11771	202.97737	-1952.63843	992.15259	142.70689	-2112.02441	969.80042	94.60651	-2165.97510	611.32825	37.14024	-2187.02344	569.99060	50.59718	-2221.31812	634.66205	51.68015	-2233.95044	589.15637	57.96636	-2232.07617	494.18759	84.33150	-2224.06104	477.16153	200.58601	-2188.62744	369.28168	68.32822	-2202.96704	328.21600	64.39059	-2249.04956	383.46365	67.86115	-2254.97339	341.80978	63.09875	-2320.57007	90.88155	124.36765	-2341.17529	123.44306	210.62312	-2273.22974	49.48637	172.59331	-2467.45117	97.93857	207.85315	-2492.00122	131.41992	156.05341	-2450.44604	73.35163	97.46145
1732	6.92400	-1946.79846	994.98938	263.24091	-2105.62329	966.57251	344.10178	-1925.36157	599.74493	392.93808	-1914.44177	555.70038	378.86234	-1976.90173	594.50232	389.80063	-1966.39783	550.44891	380.57959	-1903.83191	480.61688	360.50793	-1912.57263	462.20242	244.14214	-1796.99451	411.62064	371.29599	-1773.22046	371.93585	372.67581	-1846.90271	377.68481	372.64511	-1818.54553	342.87180	375.71207	-1667.65076	129.60953	306.52982	-1698.78918	148.16270	220.04030	-1599.90015	123.12753	262.14157	-1759.59204	38.72413	321.23141	-1819.01343	57.66319	259.29996	-1775.37280	37.34405	203.13319	-1958.76807	992.06781	142.34486	-2118.18091	969.64667	94.37665	-2171.41016	611.38812	37.48145	-2193.11304	569.85907	51.34694	-2226.76953	634.29028	51.57654	-2240.00146	588.76373	58.56721	-2236.81250	493.67276	85.02813	-2229.77637	477.18823	200.58083	-2193.58960	369.15762	68.80105	-2207.71143	328.02045	64.93445	-2254.13867	383.07379	68.41962	-2259.92725	341.48264	63.79672	-2323.25073	90.74393	124.92757	-2344.17041	122.36180	211.24074	-2274.62842	50.70449	172.92694	-2469.64038	94.00105	208.98967	-2495.17505	127.58179	157.51520	-2452.23584	70.80881	98.52687
1733	6.92800	-1952.95630	994.66614	262.96616	-2111.78564	965.97382	343.84839	-1931.01514	599.27802	392.75668	-1920.31042	555.43976	378.85809	-1982.67859	593.95599	389.76266	-1972.11560	550.05115	380.43115	-1909.37854	480.21906	360.65894	-1918.32312	461.51834	244.31024	-1801.80078	412.40958	371.35828	-1777.48669	372.99036	372.80630	-1851.29065	377.86771	372.95538	-1822.52979	343.37723	375.96313	-1669.43433	131.45589	307.09473	-1701.01416	149.63777	220.68378	-1601.78552	126.07858	262.49307	-1759.85876	38.71443	321.23511	-1819.52222	57.60414	259.51093	-1775.68201	37.61961	203.29083	-1965.02197	991.98932	142.05133	-2124.30786	969.54163	94.16939	-2178.38281	610.92480	37.80010	-2198.76831	569.56335	52.00527	-2232.92896	634.01874	51.80842	-2245.94189	588.48511	59.10970	-2243.59961	493.95148	84.97652	-2234.97021	477.08087	200.48920	-2198.77637	369.17160	69.15662	-2212.77148	327.89316	65.45811	-2259.38916	382.86407	68.78352	-2264.98926	341.28586	64.27808	-2324.36646	89.62016	126.65469	-2346.94019	121.36398	211.69670	-2275.99951	51.80329	173.15154	-2471.76660	90.01115	210.01346	-2498.32202	123.40231	158.83153	-2453.90479	68.20085	99.38047
1734	6.93200	-1959.16968	994.49365	262.80652	-2118.84277	965.60156	343.89240	-1936.84741	598.81134	392.58249	-1926.30945	555.15546	378.99457	-1988.50159	593.43732	389.78180	-1978.54468	549.41278	381.20758	-1915.09094	479.84610	360.83160	-1924.25952	460.77585	244.53691	-1806.74695	413.29208	371.49420	-1782.20459	375.03555	372.65463	-1855.87598	378.13779	373.29947	-1826.52283	343.55753	375.53436	-1671.41150	133.44505	307.65488	-1703.43433	151.18593	221.39014	-1603.89038	129.20866	262.95334	-1760.17151	38.69273	321.27792	-1819.99805	57.55255	259.66278	-1776.04358	37.90868	203.47035	-1971.24243	992.12476	141.77090	-2130.51489	969.59924	93.97142	-2184.44409	611.08405	38.15979	-2204.42798	569.71185	52.49220	-2239.17798	633.88770	52.06908	-2250.65942	588.08020	59.81282	-2249.22363	494.01013	84.94469	-2239.90576	476.75336	200.58934	-2204.15479	369.46075	69.33820	-2217.99829	328.09427	65.87316	-2264.83325	382.76050	68.92106	-2270.32446	341.27551	64.53548	-2326.34790	89.32455	126.99516	-2349.71387	120.47169	212.07663	-2277.08057	53.00042	173.19388	-2473.87036	86.20053	210.80702	-2501.50122	119.08106	159.84203	-2455.43579	65.38261	99.98074
